<svg xmlns="http://www.w3.org/2000/svg" width="72" height="62" stroke="null" preserveAspectRatio="xMidYMid meet" vector-effect="non-scaling-stroke"><rect id="backgroundrect" width="100%" height="100%" x="0" y="0" fill="none" stroke="none"/><metadata stroke="null" vector-effect="non-scaling-stroke">Created by potrace 1.15, written by Peter Selinger 2001-2017</metadata><g stroke="null"><title stroke="null">background</title><rect id="canvas_background" width="74" height="64" x="-1" y="-1" fill="none" stroke="null"/></g><g stroke="null" class="currentLayer"><title stroke="null">Layer 1</title><g id="svg_1" fill="#009" fill-opacity="1" stroke="null" class="selected" transform="translate(0,217) scale(0.10000000149011612,-0.10000000149011612)"><path id="svg_2" fill="#009" fill-opacity="1" stroke="#514f24" d="m347.741919,2161.04552c-10.042797,-7.42647 -25.514134,-28.220586 -30.942673,-41.885291c-2.171416,-5.644117 -4.885685,-22.27941 -5.699966,-37.132351c-1.628562,-25.249998 -1.899989,-26.735292 -8.414236,-28.814704c-3.799977,-0.891176 -40.442616,-4.158823 -81.428087,-6.832352c-78.985244,-5.05 -144.127713,-11.288235 -174.256105,-16.635293c-16.557044,-2.970588 -19.542741,-4.455882 -27.685549,-14.85294c-11.128505,-14.555881 -19.271314,-40.697056 -16.828471,-55.549996c2.442843,-17.526469 8.142809,-21.091175 53.199683,-32.37941c13.571348,-3.564706 43.69974,-5.05 127.570669,-6.535294c94.728007,-1.485294 111.013625,-2.37647 118.070725,-6.535294c12.214213,-7.42647 18.185606,-16.041175 20.357022,-30.002939c2.71427,-14.85294 7.057101,-93.870582 9.77137,-167.541166l1.628562,-50.797056l-49.671133,-1.782353c-27.414122,-0.891176 -54.556818,-2.970588 -60.256784,-5.05c-11.671359,-3.861764 -18.999887,-14.258823 -18.999887,-27.32941c0,-15.744117 10.042797,-18.714705 76.542401,-23.170587c57.542514,-3.861764 68.128166,-6.832352 68.128166,-20.199999c0,-16.635293 3.257123,-27.32941 8.142809,-27.32941c4.885685,0 8.142809,10.694117 8.142809,27.32941c0,13.367646 10.314224,16.338234 69.485301,20.199999c54.556818,3.861764 67.585312,6.832352 73.013851,16.338234c4.614258,8.020588 0.271427,23.764704 -7.871382,29.70588c-8.685663,6.238235 -40.171189,10.099999 -82.785221,10.397058l-36.099785,0l1.628562,52.876467c2.442843,65.649996 6.514247,146.449991 8.685663,163.382342c1.899989,14.555881 8.95709,25.249998 20.899876,32.676468c7.599955,4.455882 21.442729,5.347058 115.89931,6.832352c108.299355,2.079412 125.399253,3.564706 158.784769,14.85294c15.199909,5.05 18.457033,7.42647 22.25701,16.041175c3.799977,8.614705 4.071404,12.47647 1.085708,25.844116c-3.799977,19.011763 -12.757067,36.835292 -22.25701,44.558821c-11.128505,9.208823 -90.656603,18.714705 -219.584407,26.438234c-32.028381,2.079412 -59.71393,4.752941 -61.342492,6.238235c-1.899989,1.485294 -3.52855,14.258823 -4.342831,28.517645c-0.814281,21.388234 -2.442843,28.517645 -8.95709,41.588233c-7.057101,14.258823 -30.671246,42.18235 -35.828358,42.18235c-1.085708,0 -5.699966,-2.673529 -10.042797,-5.644117z"/></g></g></svg>