<?xml version="1.0" encoding="iso-8859-1"?>
<!-- Generator: Adobe Illustrator 16.0.0, SVG Export Plug-In . SVG Version: 6.00 Build 0)  -->
<!DOCTYPE svg PUBLIC "-//W3C//DTD SVG 1.1//EN" "http://www.w3.org/Graphics/SVG/1.1/DTD/svg11.dtd">
<svg xmlns="http://www.w3.org/2000/svg" xmlns:xlink="http://www.w3.org/1999/xlink" version="1.1" id="Capa_1" x="0px" y="0px" width="512px" height="512px" viewBox="0 0 481.417 481.418" style="enable-background:new 0 0 481.417 481.418;" xml:space="preserve">
<g>
	<g>
		<path d="M299.585,118.107V87.626V71.925c0-2.166-1.764-3.925-3.924-3.925c-2.164,0-3.927,1.759-3.927,3.925v15.701h-12.604    l-0.642-49.064c0-16.801-16.53-29.438-36.918-29.438h-3.208c-20.382,0-36.907,12.637-36.907,29.438l-0.643,49.064h-11.133V71.925    c0-2.166-1.759-3.925-3.925-3.925s-3.926,1.759-3.926,3.925v15.701v62.849L0,200.459l6.239,22.712L181.831,174.9v6.931    c0,2.166,1.76,3.925,3.926,3.925s3.925-1.759,3.925-3.925v-9.093l10.047-2.759l-0.022,1.874l14.597,48.249    c0,13.722,2.629,26.479,14.637,30.751v72.286h-39.25v23.548h39.25v80.225c-0.006,3.387,3.823,6.131,8.556,6.131h4.799    c0.767,0,1.553-0.092,2.338-0.236v33.109c0,3.519,2.857,6.38,6.374,6.38h2.949c3.526,0,6.38-2.861,6.38-6.38v-57.895    c0-3.52-2.854-6.38-6.38-6.38h-1.471v-54.954h31.398v-23.548h-31.398v-72.815c10.775-4.769,13.16-17.067,13.16-30.222    l14.583-48.061l-0.068-5.911h11.574v15.701c0,2.166,1.763,3.925,3.927,3.925c2.16,0,3.924-1.759,3.924-3.925V166.13v-23.598    l181.832-49.985l-6.239-22.712L299.585,118.107z M291.735,95.477v24.792l-12.135,3.336l-0.369-28.128H291.735z M189.681,95.477    h11.029l-0.66,49.993l-10.369,2.847V95.477z M291.735,158.279h-11.682l-0.137-10.337l11.818-3.252V158.279z" fill="#b30021"/>
	</g>
</g>
<g>
</g>
<g>
</g>
<g>
</g>
<g>
</g>
<g>
</g>
<g>
</g>
<g>
</g>
<g>
</g>
<g>
</g>
<g>
</g>
<g>
</g>
<g>
</g>
<g>
</g>
<g>
</g>
<g>
</g>
</svg>
