<?xml version="1.0" encoding="UTF-8"?>
<svg width="512" height="512" enable-background="new 0 0 481.417 481.418" version="1.1" viewBox="0 0 481.42 481.42" xml:space="preserve" xmlns="http://www.w3.org/2000/svg"><path d="m299.58 118.11v-46.182c0-2.166-1.764-3.925-3.924-3.925-2.164 0-3.927 1.759-3.927 3.925v15.701h-12.604l-0.642-49.064c0-16.801-16.53-29.438-36.918-29.438h-3.208c-20.382 0-36.907 12.637-36.907 29.438l-0.643 49.064h-11.133v-15.701c0-2.166-1.759-3.925-3.925-3.925s-3.926 1.759-3.926 3.925v78.55l-181.83 49.984 6.239 22.712 175.59-48.271v6.931c0 2.166 1.76 3.925 3.926 3.925s3.925-1.759 3.925-3.925v-9.093l10.047-2.759-0.022 1.874 14.597 48.249c0 13.722 2.629 26.479 14.637 30.751v72.286h-39.25v23.548h39.25v80.225c-6e-3 3.387 3.823 6.131 8.556 6.131h4.799c0.767 0 1.553-0.092 2.338-0.236v33.109c0 3.519 2.857 6.38 6.374 6.38h2.949c3.526 0 6.38-2.861 6.38-6.38v-57.895c0-3.52-2.854-6.38-6.38-6.38h-1.471v-54.954h31.398v-23.548h-31.398v-72.815c10.775-4.769 13.16-17.067 13.16-30.222l14.583-48.061-0.068-5.911h11.574v15.701c0 2.166 1.763 3.925 3.927 3.925 2.16 0 3.924-1.759 3.924-3.925v-39.299l181.83-49.985-6.239-22.712-175.59 48.272zm-7.85-22.63v24.792l-12.135 3.336-0.369-28.128h12.504zm-102.05 0h11.029l-0.66 49.993-10.369 2.847v-52.84zm102.05 62.802h-11.682l-0.137-10.337 11.818-3.252v13.589z" fill="#b30021"/></svg>
